<?xml version="1.0" standalone="no"?>
<!DOCTYPE svg PUBLIC "-//W3C//DTD SVG 20010904//EN"
 "http://www.w3.org/TR/2001/REC-SVG-20010904/DTD/svg10.dtd">
<svg version="1.0" xmlns="http://www.w3.org/2000/svg"
 width="1024.000000pt" height="1024.000000pt" viewBox="0 0 1024.000000 1024.000000"
 preserveAspectRatio="xMidYMid meet">

<g transform="translate(0.000000,1024.000000) scale(0.100000,-0.100000)"
fill="#000000" stroke="none">
<path d="M6937 7930 c2 -1273 5 -2315 6 -2317 1 -1 65 -4 142 -7 l140 -5 -135
10 c-74 6 -136 12 -137 13 -2 1 -4 992 -5 2202 -1 1209 -5 2249 -9 2309 -4 61
-5 -932 -2 -2205z"/>
<path d="M7256 8510 c4 -1680 12 -2630 21 -2640 5 -6 -5 2166 -17 3510 -6 638
-7 410 -4 -870z"/>
<path d="M9458 8790 c2 -795 8 -1794 12 -2220 5 -522 6 -327 2 595 -3 754 -8
1753 -12 2220 -5 585 -6 400 -2 -595z"/>
<path d="M9835 8085 c0 -1188 1 -1673 2 -1077 2 596 2 1568 0 2160 -1 592 -2
105 -2 -1083z"/>
<path d="M4405 10000 c-84 -13 -136 -30 -218 -73 -97 -50 -140 -94 -176 -175
-16 -35 -32 -67 -37 -71 -5 -5 -67 -11 -139 -14 -121 -4 -138 -7 -244 -46
-143 -51 -266 -117 -449 -238 -133 -89 -190 -141 -222 -202 -11 -22 -10 -23 6
-17 9 4 45 9 78 12 34 2 81 7 106 9 l45 4 -32 -14 c-54 -23 -204 -246 -312
-463 -12 -23 -52 -75 -90 -115 -37 -40 -73 -82 -80 -94 -11 -22 -11 -23 36
-16 27 3 56 10 65 14 29 15 37 10 32 -23 -2 -18 -8 -100 -13 -183 -11 -169
-27 -233 -97 -384 -24 -52 -42 -96 -39 -99 12 -12 64 28 142 107 l83 84 0
-124 c-1 -96 -5 -136 -20 -179 -11 -30 -19 -66 -19 -80 1 -15 3 -18 6 -8 2 9
19 23 38 32 19 9 55 40 81 69 25 28 43 43 39 32 -4 -11 -10 -75 -13 -143 -5
-128 7 -222 35 -277 24 -47 174 -255 184 -255 15 0 11 10 -17 44 -131 160
-185 280 -188 417 -1 69 2 83 34 144 43 84 111 140 172 140 21 0 38 2 38 6 0
16 64 19 87 4 22 -15 34 -43 12 -30 -7 5 -7 2 0 -11 9 -17 59 -126 75 -164 3
-8 4 3 1 24 -3 26 -1 36 6 29 5 -5 15 -54 21 -109 5 -54 13 -101 17 -104 3 -3
12 -17 20 -32 8 -16 16 -26 18 -24 2 2 10 43 19 91 10 58 27 110 50 154 74
143 189 301 218 301 8 0 38 21 67 48 58 52 58 52 -18 -65 -51 -78 -82 -139
-98 -190 -5 -19 -3 -22 11 -16 13 5 16 3 11 -10 -3 -9 -2 -17 3 -17 16 0 95
61 93 71 -3 10 69 49 92 49 14 0 14 -3 1 -29 -14 -26 -14 -30 0 -42 12 -10 22
-5 57 33 26 28 55 48 75 52 17 4 32 5 32 1 0 -3 -15 -13 -32 -21 l-33 -15 35
6 c19 3 80 8 135 11 90 6 108 4 181 -20 44 -15 96 -38 114 -51 37 -28 45 -30
34 -14 -4 7 1 7 16 -1 17 -9 20 -17 15 -37 -5 -23 -4 -25 18 -19 16 4 29 0 37
-9 15 -18 40 -20 40 -2 0 13 54 50 62 42 5 -6 143 135 176 180 l22 30 -11 -30
c-24 -65 -37 -115 -28 -109 14 8 -29 -97 -52 -128 -32 -45 -3 -32 76 32 127
104 214 242 304 482 28 75 51 144 51 152 0 9 5 16 10 16 6 0 10 -4 10 -9 0 -5
3 -17 7 -27 4 -12 3 -15 -5 -10 -17 11 -15 -3 13 -72 14 -33 34 -103 45 -154
11 -51 27 -120 35 -153 8 -33 14 -73 13 -90 -1 -30 -1 -30 -52 -25 -37 3 -43
5 -21 8 35 4 59 22 30 22 -11 0 -68 -12 -127 -26 -73 -18 -106 -30 -101 -38 3
-6 -3 -3 -14 7 -20 18 -21 17 -57 -48 -20 -36 -36 -71 -36 -78 0 -7 5 -4 11 6
5 9 15 17 21 17 7 0 6 -5 -2 -15 -9 -10 -9 -15 -1 -15 6 0 11 4 11 9 0 19 86
66 161 88 82 23 183 31 193 14 4 -5 9 -37 13 -71 4 -44 11 -64 24 -70 22 -12
25 -8 34 58 5 35 12 52 21 52 8 0 14 5 14 10 0 6 -4 10 -10 10 -5 0 -10 5 -10
11 0 5 3 8 8 6 4 -3 8 20 8 51 1 31 7 58 13 60 6 2 11 18 11 35 0 18 4 27 9
21 17 -19 40 -283 41 -484 0 -13 1 -13 10 0 13 21 23 5 11 -18 -6 -12 -11 -31
-10 -44 1 -44 67 119 119 297 23 80 79 327 80 354 1 8 25 -24 110 -139 38 -52
79 -106 90 -120 l21 -25 -6 24 c-5 15 -2 26 6 31 10 7 9 34 -5 142 -31 235
-68 378 -115 446 -10 15 -33 53 -52 85 -19 33 -49 76 -67 98 -19 21 -29 39
-23 39 5 0 13 -5 16 -11 10 -16 107 -56 188 -78 82 -22 237 -37 237 -22 0 5
-8 12 -17 14 -15 4 -15 5 2 6 11 1 -22 22 -74 46 -81 39 -108 59 -193 143
-109 106 -180 197 -223 282 -65 129 -129 203 -212 243 -24 12 -43 24 -43 28 0
16 196 33 248 21 51 -12 56 1 15 40 -61 57 -188 101 -328 114 -38 3 -97 13
-130 21 -72 18 -308 125 -388 176 -32 21 -63 34 -69 31 -6 -4 -8 -3 -5 3 4 6
-6 16 -23 22 -17 5 -28 6 -25 2 3 -5 -4 -7 -16 -4 -13 4 -16 8 -9 13 13 8 -43
25 -130 39 -102 17 -226 13 -318 -9 -46 -11 -85 -20 -87 -20 -2 0 3 21 12 46
9 26 33 64 54 85 43 43 175 114 232 124 44 9 68 32 46 46 -16 10 -23 10 -94
-1z m345 -1726 c-23 -123 -83 -367 -107 -431 -24 -65 -30 -66 -103 -23 -35 22
-77 42 -92 45 -35 8 -35 14 3 51 82 78 227 292 295 436 10 21 19 36 21 35 1
-2 -6 -53 -17 -113z m-405 -164 c-45 -183 -53 -196 -119 -204 -28 -3 -77 -15
-110 -26 -66 -24 -79 -20 -49 13 11 12 38 49 61 83 22 33 68 87 102 120 33 32
79 82 102 111 22 30 42 52 44 50 2 -2 -12 -68 -31 -147z m-527 -227 c-27 -61
-88 -157 -88 -140 0 27 100 207 115 207 2 0 -10 -30 -27 -67z m329 -29 c-3 -3
-12 -4 -19 -1 -8 3 -5 6 6 6 11 1 17 -2 13 -5z m1010 -90 c-3 -3 -12 -4 -19
-1 -8 3 -5 6 6 6 11 1 17 -2 13 -5z m-8 -28 c-10 -10 -109 -74 -109 -71 0 10
48 49 75 61 31 14 41 17 34 10z"/>
<path d="M1385 8890 c-82 -4 -304 -8 -493 -9 l-342 -1 -40 -41 c-37 -38 -40
-46 -40 -95 0 -30 3 -54 8 -54 4 0 6 19 4 41 -3 31 0 44 12 51 9 5 16 18 16
28 0 42 33 49 260 54 386 10 874 11 918 3 l42 -9 0 -794 0 -795 -220 4 -221 3
-2 681 c-1 375 -5 685 -9 689 -37 36 -968 48 -968 12 0 -4 12 -6 27 -3 50 9
706 5 798 -5 50 -5 100 -10 113 -10 l22 0 -2 -682 -3 -683 -125 0 c-69 0 -293
4 -497 9 -271 6 -373 5 -373 -3 0 -8 47 -11 148 -11 163 0 1652 -21 1692 -24
50 -3 64 -20 70 -88 7 -66 -2 -102 -29 -114 -33 -15 -1229 -43 -1843 -44 -194
0 -299 -4 -303 -10 -10 -17 1246 3 1950 30 110 4 201 8 203 9 1 0 11 16 22 34
35 57 20 173 -25 191 -9 3 -43 6 -76 6 l-59 0 -2 393 c-1 341 -3 368 -9 202
-3 -104 -7 -281 -8 -392 l-1 -203 -125 0 -125 0 0 470 0 470 89 0 c106 0 127
-12 146 -85 12 -45 14 -47 14 -17 1 40 -22 87 -48 102 -11 5 -60 10 -110 10
l-91 0 0 318 c0 174 -4 323 -8 329 -8 13 -77 28 -162 36 -25 2 -112 0 -195 -3z"/>
<path d="M1497 8600 c-10 -245 -21 -1026 -14 -1019 4 3 7 129 8 280 1 150 6
389 11 529 4 140 7 284 6 320 -2 36 -6 -14 -11 -110z"/>
<path d="M5827 8490 c21 -32 39 -57 41 -56 4 5 -67 116 -73 116 -3 0 12 -27
32 -60z"/>
<path d="M4185 7641 c-33 -10 -80 -28 -105 -39 -25 -12 -65 -24 -88 -28 -23
-4 -42 -11 -42 -17 0 -16 92 -1 159 27 70 30 78 31 61 11 -19 -22 -24 -137
-10 -204 13 -63 33 -81 86 -81 75 0 121 72 138 215 7 54 3 63 -32 87 l-23 15
31 7 c34 6 61 -4 99 -38 l24 -21 -12 23 c-28 53 -179 76 -286 43z m165 -46 c6
-8 9 -22 6 -32 -3 -10 -8 -45 -11 -78 -3 -33 -10 -61 -15 -63 -6 -2 -10 -13
-10 -23 0 -45 -44 -78 -83 -63 -13 5 -11 12 9 42 13 20 28 42 34 49 5 7 10 20
10 29 0 9 10 18 21 21 20 6 21 11 16 69 -5 65 1 76 23 49z"/>
<path d="M5115 7574 c-34 -19 -85 -64 -85 -76 0 -14 28 -9 33 6 8 21 51 47 92
56 39 9 49 -4 10 -14 -57 -14 -105 -136 -91 -230 6 -40 12 -49 40 -63 52 -25
85 -9 118 57 37 73 49 187 24 225 -10 15 -15 29 -12 32 11 11 67 -20 92 -51
35 -41 48 -48 79 -40 33 8 33 23 -1 16 -20 -4 -32 3 -56 32 -40 49 -54 55
-140 61 -55 3 -80 1 -103 -11z m119 -36 c7 -32 9 -58 6 -93 -2 -17 -6 -2 -10
34 -4 36 -13 67 -21 72 -11 7 -11 9 3 9 10 0 20 -10 22 -22z m2 -143 c11 -26
-28 -106 -60 -126 -31 -19 -31 -19 -48 4 -10 12 -18 35 -18 51 0 35 7 31 14
-7 9 -51 18 -48 53 23 35 70 49 83 59 55z"/>
<path d="M1475 7540 c-3 -5 -1 -10 4 -10 6 0 11 5 11 10 0 6 -2 10 -4 10 -3 0
-8 -4 -11 -10z"/>
<path d="M3145 7489 c-9 -16 -18 -53 -20 -82 l-4 -52 9 45 c5 25 17 62 25 82
18 46 12 50 -10 7z"/>
<path d="M3228 7503 c7 -3 16 -2 19 1 4 3 -2 6 -13 5 -11 0 -14 -3 -6 -6z"/>
<path d="M1473 7425 c0 -44 2 -61 4 -37 2 23 2 59 0 80 -2 20 -4 1 -4 -43z"/>
<path d="M3233 7463 c-10 -10 -14 -15 -9 -10 6 4 21 7 34 7 13 0 20 4 17 10
-9 14 -20 12 -42 -7z"/>
<path d="M4956 7465 c-9 -26 -7 -32 5 -12 6 10 9 21 6 23 -2 3 -7 -2 -11 -11z"/>
<path d="M4926 7455 c-9 -26 -7 -32 5 -12 6 10 9 21 6 23 -2 3 -7 -2 -11 -11z"/>
<path d="M5412 7433 c-5 -21 -13 -63 -17 -93 -3 -30 -8 -68 -11 -85 -3 -24 -2
-26 5 -10 5 11 12 49 15 85 4 36 12 80 18 98 5 18 8 35 6 38 -3 2 -10 -13 -16
-33z"/>
<path d="M4930 7393 c-7 -21 -18 -44 -24 -52 -6 -8 -11 -46 -10 -85 0 -80 34
-195 84 -285 28 -50 29 -56 15 -77 -8 -12 -25 -26 -37 -30 -38 -11 -161 -88
-149 -92 7 -2 22 2 34 10 73 47 97 58 97 48 0 -6 -23 -25 -50 -42 -50 -31 -63
-51 -18 -28 34 18 158 143 158 159 0 8 -16 37 -35 65 -76 112 -104 272 -66
380 12 33 19 61 17 63 -2 3 -10 -13 -16 -34z"/>
<path d="M3261 7337 c-1 -30 6 -45 37 -80 21 -23 42 -50 45 -59 4 -10 11 -18
17 -18 6 0 8 4 5 10 -3 5 -11 38 -16 71 -10 60 -26 105 -35 96 -2 -2 0 -17 5
-33 17 -54 21 -84 12 -84 -16 0 -54 61 -62 99 l-7 36 -1 -38z"/>
<path d="M0 7250 c0 -9 458 -3 469 6 2 2 -102 4 -232 4 -153 0 -237 -4 -237
-10z"/>
<path d="M3030 7224 c0 -6 7 -19 16 -30 14 -18 14 -18 3 6 -14 31 -19 36 -19
24z"/>
<path d="M5128 7213 c6 -2 18 -2 25 0 6 3 1 5 -13 5 -14 0 -19 -2 -12 -5z"/>
<path d="M3200 7179 c28 -23 110 -69 175 -97 6 -3 -1 8 -15 23 -14 15 -53 39
-86 55 -34 15 -64 33 -68 39 -4 6 -15 11 -24 11 -12 -1 -7 -9 18 -31z"/>
<path d="M5322 7190 c0 -14 2 -19 5 -12 2 6 2 18 0 25 -3 6 -5 1 -5 -13z"/>
<path d="M5332 7130 c0 -14 2 -19 5 -12 2 6 2 18 0 25 -3 6 -5 1 -5 -13z"/>
<path d="M3096 7118 c10 -14 21 -24 23 -22 3 3 -6 15 -18 27 l-24 22 19 -27z"/>
<path d="M5362 7044 c-3 -105 -63 -261 -170 -439 -68 -115 -128 -176 -332
-341 -91 -73 -178 -146 -195 -161 -66 -62 -86 -73 -137 -73 -70 0 -197 47
-496 186 -40 18 -71 30 -68 26 3 -5 40 -25 83 -45 137 -66 259 -128 239 -122
-12 3 -28 -3 -42 -16 -21 -20 -22 -23 -8 -61 8 -22 14 -50 14 -62 0 -12 6 -30
14 -41 20 -30 56 -133 55 -158 0 -12 -7 -1 -15 27 -20 65 -27 54 -9 -14 28
-103 -18 -216 -105 -260 -54 -28 -184 -60 -266 -67 -140 -11 -322 37 -436 115
-87 60 -235 211 -289 295 -77 120 -146 260 -159 324 -17 80 -5 159 28 190 l27
25 6 -24 c4 -12 7 -18 8 -12 1 6 18 33 40 60 43 56 75 113 67 122 -3 3 -6 0
-6 -6 0 -7 -4 -12 -10 -12 -5 0 -7 8 -4 18 3 9 -7 2 -23 -15 -16 -19 -68 -52
-119 -77 -50 -24 -111 -57 -135 -72 -24 -15 -154 -83 -289 -150 -352 -175
-844 -433 -958 -503 -228 -141 -423 -338 -506 -515 -44 -92 -139 -423 -171
-595 -14 -73 -25 -135 -25 -136 0 -1 -30 -5 -67 -8 -139 -11 -275 -38 -337
-66 -67 -31 -186 -122 -228 -174 -15 -19 -38 -62 -52 -96 -67 -166 -74 -354
-28 -791 17 -157 36 -346 42 -420 22 -266 64 -573 82 -596 4 -6 7 -22 6 -35
-4 -29 17 -30 107 -5 69 18 90 21 550 77 336 40 342 41 490 30 192 -15 385
-39 408 -52 10 -5 61 -16 115 -24 230 -35 588 -98 669 -119 32 -8 88 -18 126
-22 37 -4 65 -9 62 -12 -3 -3 -61 -11 -128 -18 -510 -50 -838 -88 -937 -109
-67 -14 -206 -33 -405 -55 -38 -4 -59 -8 -45 -9 50 -5 137 0 265 15 119 13
368 39 900 93 110 12 273 30 363 41 89 12 167 18 172 15 6 -3 10 -18 9 -33 0
-24 -1 -25 -9 -7 -6 12 -7 -22 -3 -87 5 -83 2 -128 -12 -197 l-19 -90 -48 -11
c-27 -5 -70 -10 -96 -10 -26 0 -90 -7 -142 -14 -206 -32 -484 -65 -655 -80
-289 -26 -891 -75 -1007 -82 l-107 -7 -3 199 c-2 109 1 202 6 205 10 8 -6 13
-104 33 -41 9 -133 29 -205 45 -104 24 -546 112 -677 136 -19 3 -28 0 -28 -8
0 -9 104 -34 343 -81 188 -38 378 -76 422 -86 44 -10 113 -23 153 -30 l74 -12
-4 -167 c-4 -205 -10 -221 -85 -214 -26 3 -91 14 -143 24 -52 11 -153 31 -225
44 -72 14 -164 32 -205 41 -41 8 -128 26 -193 39 -65 14 -122 27 -128 30 -5 4
-9 -7 -9 -24 0 -34 -15 -29 245 -76 77 -14 156 -30 175 -35 34 -9 276 -55 450
-86 202 -36 567 -10 1765 126 149 16 282 33 297 36 34 7 294 -37 276 -47 -7
-3 -47 -10 -88 -13 -41 -4 -246 -27 -455 -51 -209 -25 -454 -51 -545 -60 -91
-9 -214 -22 -275 -30 -60 -8 -218 -28 -350 -45 -132 -17 -247 -33 -255 -35
-28 -9 -371 -55 -407 -55 -19 0 -101 18 -182 39 -603 162 -651 174 -651 157 0
-7 28 -20 63 -29 127 -33 338 -86 551 -137 l219 -53 -7 -176 c-5 -97 -9 -184
-9 -193 -1 -12 -9 -18 -23 -18 -23 0 -770 187 -786 196 -4 3 -8 -6 -8 -20 0
-29 -9 -26 280 -100 118 -30 267 -68 330 -84 222 -58 259 -63 377 -52 142 13
1009 104 1238 130 183 21 533 58 795 85 80 8 177 22 215 31 67 14 77 14 194
-5 67 -12 141 -22 164 -22 110 -3 101 -15 -23 -32 -172 -23 -561 -70 -895
-107 -385 -43 -759 -88 -825 -99 -30 -5 -98 -14 -150 -20 -274 -33 -351 -43
-417 -56 -144 -30 -220 -18 -573 83 -135 39 -342 96 -460 127 -118 31 -223 59
-234 62 -12 3 -17 1 -14 -8 2 -7 40 -22 84 -33 43 -12 84 -25 91 -29 22 -14
832 -227 845 -222 7 3 36 -1 63 -8 l50 -13 3 -85 c1 -46 -1 -130 -5 -187 -5
-56 -5 -102 -1 -102 4 0 8 -5 8 -12 0 -23 -215 -1 -325 33 -55 17 -145 44
-200 60 -55 16 -127 38 -160 49 -112 37 -277 81 -288 76 -7 -2 -3 -5 7 -5 11
-1 17 -4 14 -7 -3 -3 -25 0 -47 7 -30 9 -38 15 -29 21 9 6 4 8 -14 4 -14 -3
-28 -1 -30 4 -2 5 -18 14 -35 19 -29 8 -33 7 -33 -9 0 -12 11 -22 33 -29 48
-15 394 -112 627 -177 467 -128 395 -115 559 -104 145 10 320 29 901 95 492
55 886 103 1118 136 119 16 267 35 327 43 117 14 163 29 147 49 -6 7 -12 21
-15 32 -4 19 -5 19 -6 -2 -1 -15 -9 -23 -28 -27 -89 -19 -1176 -156 -1478
-186 -49 -5 -133 -14 -185 -20 -205 -22 -689 -69 -765 -74 l-80 -6 0 204 0
203 120 12 c66 7 167 18 225 26 58 8 128 16 155 19 28 3 178 21 335 40 479 58
783 95 1055 126 433 50 519 61 540 70 36 15 74 21 99 14 21 -5 27 -15 37 -62
6 -33 8 -84 4 -126 -11 -118 -14 -229 -5 -220 15 18 29 76 41 172 11 86 10
106 -5 163 -9 35 -18 75 -20 88 -5 33 -16 37 -111 45 -45 3 -127 15 -181 26
-55 11 -109 20 -120 20 -21 0 -21 1 -6 63 10 40 16 112 16 203 l1 142 22 -9
c30 -11 122 -21 203 -22 39 0 55 -3 40 -7 -18 -4 2 -10 65 -19 50 -7 149 -26
220 -41 175 -39 1411 -319 1605 -365 163 -38 321 -72 381 -81 21 -4 70 2 120
14 46 11 112 26 146 32 35 7 60 16 58 21 -6 9 12 12 320 69 520 97 1456 275
1499 286 22 5 22 4 35 -203 22 -342 29 -373 22 -103 -11 468 -6 704 17 726 20
20 185 70 297 89 132 23 384 24 475 2 152 -37 276 -70 295 -79 17 -8 16 -6 -3
11 -23 20 -121 61 -147 61 -25 0 -24 16 6 79 30 62 684 2012 777 2316 27 88
53 183 56 210 7 46 5 53 -19 75 -25 23 -33 25 -123 24 -54 -1 -313 -18 -577
-38 -264 -20 -689 -52 -945 -71 -256 -19 -521 -39 -590 -45 -69 -5 -219 -17
-335 -25 -115 -8 -240 -20 -278 -25 -166 -25 -281 -107 -331 -237 -14 -38 -26
-74 -26 -82 0 -7 -33 -131 -74 -275 -41 -143 -83 -295 -95 -336 -11 -41 -25
-88 -31 -104 l-11 -29 -16 24 c-9 13 -45 54 -79 91 -64 68 -164 246 -164 291
0 43 -69 344 -93 407 -14 36 -45 108 -70 160 -69 148 -134 360 -202 664 -49
221 -118 443 -166 538 -37 72 -110 138 -269 243 -190 126 -265 159 -534 230
-114 30 -178 54 -174 65 4 9 129 117 232 200 167 135 260 234 332 352 125 207
167 321 161 440 l-3 73 -2 -71z m-2536 -780 c-19 -13 -46 -19 -46 -9 0 8 55
34 60 28 3 -2 -4 -11 -14 -19z m846 -1003 c11 -11 7 -12 -22 -6 -33 7 -110 41
-110 49 0 8 121 -31 132 -43z m6130 -698 c38 -34 37 -37 -224 -821 -99 -299
-182 -541 -185 -538 -2 2 54 179 125 393 189 564 194 582 173 569 -4 -3 -6 6
-3 20 3 17 7 21 12 14 5 -9 9 -9 14 -1 4 6 5 15 1 20 -3 5 0 13 6 16 5 4 8 14
5 22 -4 9 -2 11 6 7 7 -5 9 0 6 14 -4 14 -2 20 5 15 6 -4 8 0 4 10 -3 10 -3
17 1 17 4 0 13 20 21 44 9 33 10 50 2 64 -7 14 -8 23 -1 27 14 9 -47 58 -77
61 -18 2 -23 -1 -19 -12 5 -12 2 -12 -18 1 -12 8 -25 12 -29 9 -3 -3 -27 -7
-54 -8 -37 -1 -47 -4 -45 -16 3 -11 -1 -11 -16 3 -10 9 -21 15 -24 12 -2 -3
-68 -7 -146 -10 -78 -2 -190 -9 -249 -15 -59 -5 -164 -14 -233 -20 -69 -5
-165 -15 -215 -21 -49 -5 -115 -11 -145 -13 -31 -2 -85 -7 -120 -11 -36 -5
-94 -9 -130 -10 -36 0 -76 -4 -90 -8 -13 -4 -56 -7 -95 -8 -89 -1 -258 -16
-404 -35 -62 -9 -126 -16 -142 -16 -15 -1 -27 -4 -25 -7 2 -3 -99 -6 -225 -5
-126 0 -229 -3 -229 -7 0 -4 -32 -8 -71 -7 -57 0 -76 -4 -99 -21 -16 -11 -34
-22 -41 -23 -8 -2 -27 -15 -44 -30 -17 -16 -32 -23 -34 -16 -2 6 16 28 39 49
59 53 35 50 -26 -3 l-49 -42 35 38 c77 84 156 108 405 126 133 10 404 30 1625
125 179 13 417 32 530 40 113 9 216 17 230 19 14 2 74 4 134 5 89 1 113 -2
128 -16z m-8836 -149 c-12 -31 -75 -462 -86 -582 -5 -67 -14 -142 -19 -165 -5
-23 -12 -79 -16 -123 -3 -45 -13 -106 -20 -135 -8 -30 -15 -75 -15 -100 0 -48
-43 -287 -109 -609 -22 -107 -46 -239 -53 -292 -13 -109 -5 -102 -120 -113
-48 -5 -68 -4 -68 4 0 6 -11 11 -25 11 -19 0 -25 5 -25 22 0 21 1 21 13 3 24
-31 27 -2 11 91 -8 49 -20 123 -25 164 -6 41 -15 102 -22 135 -9 50 -12 56
-18 35 l-7 -25 -1 28 c-1 15 4 27 9 27 6 0 10 10 10 23 -1 20 -2 21 -14 5 -13
-18 -12 -24 -52 292 -70 565 -79 715 -50 850 35 162 126 294 257 370 75 44
141 64 284 83 144 20 168 20 161 1z m5695 -349 c-11 -33 -20 -55 -20 -49 -1
15 30 117 34 112 2 -2 -4 -31 -14 -63z m-42 -165 c-12 -44 -23 -79 -26 -77 -2
3 6 44 19 92 12 48 24 82 26 76 2 -5 -7 -46 -19 -91z m-92 -322 c-3 -8 -6 -5
-6 6 -1 11 2 17 5 13 3 -3 4 -12 1 -19z m-18 -72 c-6 -26 -13 -45 -16 -43 -2
3 1 26 8 51 6 26 13 45 16 43 2 -3 -1 -26 -8 -51z m-27 -88 c-8 -8 -9 -4 -5
13 4 13 8 18 11 10 2 -7 -1 -18 -6 -23z m-24 -96 c-6 -24 -13 -41 -15 -38 -2
2 1 23 7 46 6 23 13 40 15 38 2 -2 -1 -23 -7 -46z m-60 -17 c-3 -3 -9 2 -12
12 -6 14 -5 15 5 6 7 -7 10 -15 7 -18z m-61 -240 c-145 -500 -141 -487 -149
-459 -4 16 -5 30 -3 33 3 2 5 -2 6 -10 0 -12 112 357 165 546 9 33 19 55 21
50 2 -6 -16 -78 -40 -160z m90 143 c-3 -8 -6 -5 -6 6 -1 11 2 17 5 13 3 -3 4
-12 1 -19z m1789 -9 c8 -6 14 -8 14 -4 0 4 13 -8 29 -28 15 -20 31 -34 35 -32
3 3 4 2 2 -1 -3 -3 0 -18 5 -32 5 -14 11 -39 13 -56 4 -33 -20 -135 -35 -151
-5 -5 -3 10 6 34 19 54 19 143 1 179 -30 57 -96 102 -150 102 -42 0 -144 -60
-191 -112 -25 -27 -45 -45 -45 -40 0 23 95 105 153 133 50 24 70 29 106 25 24
-4 50 -11 57 -17z m-16 -56 c11 -10 5 -9 -20 3 -45 22 -52 28 -20 19 14 -4 32
-14 40 -22z m-202 -50 c-20 -21 -43 -51 -51 -68 -15 -27 -16 -28 -17 -8 0 22
77 113 95 113 5 0 -7 -17 -27 -37z m193 -6 c29 -31 36 -157 9 -157 -5 0 -11
-13 -15 -30 -4 -16 -11 -30 -16 -30 -5 0 -9 -10 -9 -22 1 -21 4 -19 36 17 43
48 34 27 -13 -33 -44 -54 -99 -82 -155 -80 -40 1 -40 1 -8 5 46 5 91 23 84 34
-3 5 1 6 9 3 8 -3 17 1 20 9 4 10 -1 13 -21 10 -15 -3 -43 -6 -62 -8 -19 -2
-38 -4 -42 -4 -3 -1 -8 -9 -10 -18 -3 -14 -7 -13 -32 9 -27 22 -29 31 -29 87
0 50 6 73 34 128 39 76 71 104 131 113 43 6 58 1 89 -33z m1118 -151 c-29 -85
-55 -153 -57 -151 -2 2 20 74 49 159 29 86 55 154 57 151 2 -2 -20 -74 -49
-159z m-1416 89 c-3 -9 -8 -14 -10 -11 -3 3 -2 9 2 15 9 16 15 13 8 -4z m-20
-40 c-3 -9 -8 -14 -10 -11 -3 3 -2 9 2 15 9 16 15 13 8 -4z m32 -85 c-7 -36
-14 -54 -14 -40 -1 14 -4 36 -6 50 -5 22 -4 23 5 5 9 -17 10 -14 5 13 -3 22
-1 31 6 26 8 -4 9 1 5 17 -5 17 -4 20 2 9 6 -10 5 -38 -3 -80z m-2720 5 c30
-46 95 -207 95 -236 0 -5 -27 -14 -60 -21 -78 -16 -69 -23 12 -10 35 6 102 16
150 22 82 11 90 11 128 -9 22 -12 46 -21 52 -21 18 0 230 -81 293 -113 61 -30
194 -127 229 -166 25 -28 41 -27 22 1 -23 32 -20 45 19 91 19 22 40 59 46 80
6 21 13 37 16 34 2 -3 -3 -32 -12 -64 -16 -56 -25 -89 -80 -275 -14 -49 -29
-88 -33 -88 -19 0 -52 13 -52 20 0 5 13 13 29 18 19 7 32 21 40 44 l11 33 -23
-26 c-12 -15 -34 -29 -48 -32 -23 -6 -37 5 -129 103 -56 60 -123 138 -150 172
-53 70 -68 84 -122 117 -52 31 -48 21 7 -18 25 -18 86 -81 136 -141 50 -60
102 -116 116 -125 13 -9 22 -19 19 -23 -3 -3 1 -17 10 -31 9 -14 -18 10 -61
54 l-76 80 44 -60 c25 -33 70 -83 101 -111 31 -29 56 -58 56 -65 0 -8 16 -40
35 -73 l36 -58 -15 -52 c-8 -28 -20 -71 -26 -95 -11 -42 -12 -43 -26 -22 -13
17 -24 20 -77 19 -70 -2 -84 3 -98 38 -24 65 -23 74 9 74 42 0 92 11 87 20 -2
4 -30 3 -62 -1 -49 -7 -60 -6 -68 8 -36 58 -108 163 -130 188 -15 17 -6 -1 20
-38 58 -85 113 -203 159 -341 47 -142 48 -157 14 -170 -51 -18 -78 2 -145 104
-34 52 -101 151 -150 218 -48 68 -111 158 -140 199 -52 77 -105 139 -69 82
l17 -27 -82 33 c-77 31 -314 84 -325 72 -3 -3 21 -10 53 -17 121 -23 213 -49
284 -80 82 -34 77 -29 251 -273 101 -141 203 -335 194 -365 -4 -11 -13 -23
-21 -26 -22 -8 -62 10 -75 34 -12 23 -11 24 27 10 26 -9 27 -9 9 5 -11 8 -24
15 -30 15 -5 0 -21 10 -35 23 -21 18 -23 19 -11 2 8 -11 -1 -7 -20 10 -19 17
-49 48 -65 70 -17 21 -94 96 -173 165 -139 123 -144 126 -215 142 -39 9 -74
15 -75 13 -2 -2 27 -13 64 -25 64 -19 112 -50 204 -129 l35 -30 -56 -1 c-52 0
-60 3 -115 48 -137 109 -300 219 -310 209 -1 -1 35 -27 82 -57 46 -30 127 -90
180 -132 52 -42 103 -80 112 -83 9 -3 41 -48 70 -102 69 -127 69 -183 1 -183
-36 0 -66 26 -118 103 -31 45 -56 70 -80 81 -20 8 -56 26 -81 39 -96 53 -204
98 -210 87 -3 -5 -76 -28 -161 -50 -84 -21 -176 -48 -204 -59 -27 -10 -63 -21
-80 -24 -16 -3 -88 -23 -160 -44 -113 -33 -143 -38 -230 -38 -112 0 -246 17
-350 45 -38 10 -87 21 -107 25 -37 6 -44 14 -72 85 -3 8 -4 -1 -2 -21 3 -26 0
-36 -10 -36 -20 0 -18 60 5 132 11 33 25 82 32 108 7 27 15 43 19 37 4 -6 12
9 19 32 21 70 89 208 106 214 8 4 51 1 95 -7 69 -11 84 -10 117 3 21 9 79 25
128 37 133 32 385 113 380 122 -3 4 5 5 17 2 17 -3 19 -2 10 5 -10 6 20 18
100 40 224 62 254 71 323 98 61 23 85 27 187 28 72 1 118 5 117 11 0 6 10 13
23 17 l23 6 -22 1 c-26 1 -28 12 -14 108 10 68 41 213 46 213 2 0 20 -25 40
-55z m3056 18 c-12 -20 -14 -14 -5 12 4 9 9 14 11 11 3 -2 0 -13 -6 -23z
m-394 -70 c-2 -16 -4 -3 -4 27 0 30 2 43 4 28 2 -16 2 -40 0 -55z m96 -125
c12 -7 49 -15 82 -19 l60 -6 -53 -1 c-79 -3 -134 31 -177 108 -4 8 9 -4 29
-28 21 -23 47 -48 59 -54z m87 62 c0 -5 -5 -10 -11 -10 -5 0 -7 5 -4 10 3 6 8
10 11 10 2 0 4 -4 4 -10z m60 0 c0 -5 -5 -10 -11 -10 -5 0 -7 5 -4 10 3 6 8
10 11 10 2 0 4 -4 4 -10z m1136 -96 c-8 -21 -15 -34 -15 -28 -1 15 20 76 25
71 2 -2 -2 -21 -10 -43z m-8849 -16 c-3 -7 -5 -2 -5 12 0 14 2 19 5 13 2 -7 2
-19 0 -25z m8739 -319 c-51 -156 -108 -319 -126 -362 -32 -78 -33 -79 -64 -73
-235 42 -531 28 -712 -34 -31 -11 -59 -18 -61 -16 -6 5 107 42 192 62 92 22
354 30 476 15 52 -6 103 -13 113 -14 25 -3 57 77 177 441 50 150 93 272 95
270 2 -3 -38 -132 -90 -289z m-2947 207 c-9 -8 -10 -7 -5 7 3 10 7 24 7 30 1
7 3 4 6 -7 3 -10 -1 -23 -8 -30z m-29 -66 c0 -5 -9 -14 -20 -20 -19 -10 -20
-10 -8 9 13 22 28 28 28 11z m-4123 -176 c-3 -3 -12 -4 -19 -1 -8 3 -5 6 6 6
11 1 17 -2 13 -5z m1663 -8 c0 -9 -30 -14 -35 -6 -4 6 3 10 14 10 12 0 21 -2
21 -4z m2477 -38 c-3 -8 -6 -5 -6 6 -1 11 2 17 5 13 3 -3 4 -12 1 -19z m-3390
-84 c-3 -3 -12 -4 -19 -1 -8 3 -5 6 6 6 11 1 17 -2 13 -5z m122 -19 c93 -16
121 -28 45 -19 -68 8 -154 25 -154 30 0 7 21 5 109 -11z m3177 -74 c-3 -9 -8
-29 -12 -44 l-6 -28 -18 29 c-10 15 -20 37 -24 48 -5 18 -2 20 29 16 27 -3 34
-8 31 -21z m13 -115 c-12 -42 -24 -74 -26 -72 -2 2 6 38 18 80 12 42 24 74 26
72 2 -2 -6 -38 -18 -80z m-2962 42 c-3 -8 -6 -5 -6 6 -1 11 2 17 5 13 3 -3 4
-12 1 -19z m4993 -172 c0 -3 -4 -8 -10 -11 -5 -3 -10 -1 -10 4 0 6 5 11 10 11
6 0 10 -2 10 -4z m-2707 -64 c58 -58 71 -80 40 -64 -10 6 -38 13 -62 17 -35 6
-42 5 -35 -6 6 -11 4 -11 -10 0 -13 11 -14 16 -4 22 7 5 9 9 3 10 -5 0 1 5 15
10 18 6 14 7 -17 3 -24 -3 -43 -2 -43 4 0 5 19 14 43 20 l42 11 -44 -4 c-48
-4 -71 2 -71 17 0 6 6 8 13 5 6 -2 21 -1 32 4 34 13 39 11 98 -49z m2634 -169
c-2 -21 -4 -6 -4 32 0 39 2 55 4 38 2 -18 2 -50 0 -70z m-4438 71 c2 -2 -7 -4
-22 -4 -14 0 -29 5 -32 10 -6 10 42 4 54 -6z m-496 -51 c-7 -2 -19 -2 -25 0
-7 3 -2 5 12 5 14 0 19 -2 13 -5z m298 -82 c15 -6 18 -10 8 -10 -9 -1 -25 7
-36 17 -10 9 -14 14 -8 10 6 -4 22 -12 36 -17z m-100 -61 c10 -30 18 -66 18
-80 -1 -23 -2 -23 -9 5 -4 18 -7 -15 -7 -85 0 -151 -12 -195 -60 -215 -35 -15
-728 -97 -1218 -145 -379 -37 -868 -90 -986 -106 -79 -12 -127 -14 -153 -8
l-38 9 -1 202 -2 202 50 6 c28 3 145 16 260 29 116 14 352 41 525 61 173 20
428 49 565 65 138 16 414 48 615 71 201 22 367 43 370 45 2 3 15 4 28 2 19 -2
28 -14 43 -58z m4736 -6 c-3 -3 -12 -4 -19 -1 -8 3 -5 6 6 6 11 1 17 -2 13 -5z
m-62 -14 c-16 -4 -41 -8 -55 -8 -22 0 -22 1 5 8 17 4 41 8 55 8 22 0 22 -1 -5
-8z m-92 -17 c-7 -2 -19 -2 -25 0 -7 3 -2 5 12 5 14 0 19 -2 13 -5z m-68 -13
c-16 -4 -41 -8 -55 -8 -22 0 -22 1 5 8 17 4 41 8 55 8 22 0 22 -1 -5 -8z m188
3 c-7 -2 -19 -2 -25 0 -7 3 -2 5 12 5 14 0 19 -2 13 -5z m-50 -10 c-7 -2 -19
-2 -25 0 -7 3 -2 5 12 5 14 0 19 -2 13 -5z m-248 -13 c-16 -4 -39 -8 -50 -8
-16 0 -15 2 5 8 14 4 36 8 50 8 22 0 22 -1 -5 -8z m198 3 c-7 -2 -19 -2 -25 0
-7 3 -2 5 12 5 14 0 19 -2 13 -5z m129 -12 c-13 -8 -163 -38 -572 -115 -129
-25 -341 -65 -470 -90 -436 -83 -732 -137 -743 -133 -5 1 93 22 219 46 126 24
382 72 569 108 187 35 423 80 525 99 343 63 455 86 464 95 5 5 12 6 15 3 3 -3
0 -9 -7 -13z m-189 2 c-7 -2 -19 -2 -25 0 -7 3 -2 5 12 5 14 0 19 -2 13 -5z
m-513 -63 c-755 -145 -771 -147 -759 -136 2 2 141 30 309 61 168 32 393 75
500 95 107 21 209 38 225 38 17 0 -107 -26 -275 -58z m463 53 c-7 -2 -19 -2
-25 0 -7 3 -2 5 12 5 14 0 19 -2 13 -5z m-50 -10 c-7 -2 -19 -2 -25 0 -7 3 -2
5 12 5 14 0 19 -2 13 -5z m-56 -9 c-3 -3 -12 -4 -19 -1 -8 3 -5 6 6 6 11 1 17
-2 13 -5z m-50 -10 c-3 -3 -12 -4 -19 -1 -8 3 -5 6 6 6 11 1 17 -2 13 -5z
m-54 -11 c-7 -2 -19 -2 -25 0 -7 3 -2 5 12 5 14 0 19 -2 13 -5z m-56 -9 c-3
-3 -12 -4 -19 -1 -8 3 -5 6 6 6 11 1 17 -2 13 -5z m-54 -11 c-7 -2 -19 -2 -25
0 -7 3 -2 5 12 5 14 0 19 -2 13 -5z m-56 -9 c-3 -3 -12 -4 -19 -1 -8 3 -5 6 6
6 11 1 17 -2 13 -5z m-54 -11 c-7 -2 -19 -2 -25 0 -7 3 -2 5 12 5 14 0 19 -2
13 -5z m-50 -10 c-7 -2 -19 -2 -25 0 -7 3 -2 5 12 5 14 0 19 -2 13 -5z m-68
-13 c-16 -4 -39 -8 -50 -8 -16 0 -15 2 5 8 14 4 36 8 50 8 22 0 22 -1 -5 -8z
m-82 -17 c-7 -2 -19 -2 -25 0 -7 3 -2 5 12 5 14 0 19 -2 13 -5z m-50 -10 c-7
-2 -21 -2 -30 0 -10 3 -4 5 12 5 17 0 24 -2 18 -5z m-60 -10 c-7 -2 -19 -2
-25 0 -7 3 -2 5 12 5 14 0 19 -2 13 -5z m-56 -9 c-3 -3 -12 -4 -19 -1 -8 3 -5
6 6 6 11 1 17 -2 13 -5z m-44 -11 c-7 -2 -19 -2 -25 0 -7 3 -2 5 12 5 14 0 19
-2 13 -5z m-98 -19 c-33 -7 -69 -13 -80 -12 -27 0 83 26 115 26 14 0 -2 -6
-35 -14z m-405 -39 c-63 -13 -140 -26 -170 -29 -30 -3 10 7 90 23 80 16 156
29 170 29 14 0 -27 -11 -90 -23z m293 18 c-7 -2 -19 -2 -25 0 -7 3 -2 5 12 5
14 0 19 -2 13 -5z m-60 -10 c-7 -2 -19 -2 -25 0 -7 3 -2 5 12 5 14 0 19 -2 13
-5z m-68 -13 c-16 -4 -41 -8 -55 -8 -22 0 -22 1 5 8 17 4 41 8 55 8 22 0 22
-1 -5 -8z m-92 -17 c-7 -2 -19 -2 -25 0 -7 3 -2 5 12 5 14 0 19 -2 13 -5z
m-50 -10 c-7 -2 -21 -2 -30 0 -10 3 -4 5 12 5 17 0 24 -2 18 -5z m-260 -10
c-7 -2 -21 -2 -30 0 -10 3 -4 5 12 5 17 0 24 -2 18 -5z m200 0 c-7 -2 -19 -2
-25 0 -7 3 -2 5 12 5 14 0 19 -2 13 -5z m-50 -10 c-7 -2 -19 -2 -25 0 -7 3 -2
5 12 5 14 0 19 -2 13 -5z m-286 -9 c-3 -3 -12 -4 -19 -1 -8 3 -5 6 6 6 11 1
17 -2 13 -5z m226 -1 c-7 -2 -21 -2 -30 0 -10 3 -4 5 12 5 17 0 24 -2 18 -5z
m-88 -14 c-51 -10 -92 -10 -50 1 17 4 44 8 60 8 25 0 24 -2 -10 -9z m-98 -15
c-3 -3 -12 -4 -19 -1 -8 3 -5 6 6 6 11 1 17 -2 13 -5z m-50 -80 c-3 -3 -12 -4
-19 -1 -8 3 -5 6 6 6 11 1 17 -2 13 -5z m-100 -20 c-3 -3 -12 -4 -19 -1 -8 3
-5 6 6 6 11 1 17 -2 13 -5z m-49 -11 c-10 -2 -26 -2 -35 0 -10 3 -2 5 17 5 19
0 27 -2 18 -5z m-5691 -489 c-3 -3 -12 -4 -19 -1 -8 3 -5 6 6 6 11 1 17 -2 13
-5z"/>
<path d="M9776 4437 c3 -10 9 -15 12 -12 3 3 0 11 -7 18 -10 9 -11 8 -5 -6z"/>
<path d="M451 2404 c0 -11 3 -14 6 -6 3 7 2 16 -1 19 -3 4 -6 -2 -5 -13z"/>
<path d="M7981 3003 c-10 -26 -10 -27 4 -9 8 11 15 23 15 28 0 15 -7 8 -19
-19z"/>
<path d="M5085 2509 c33 -11 106 -24 163 -29 57 -6 119 -17 138 -25 19 -8 96
-72 170 -142 75 -71 141 -129 147 -131 20 -6 -266 268 -298 284 -16 9 -88 22
-160 30 -71 8 -143 18 -159 24 -16 5 -36 10 -45 9 -9 0 11 -10 44 -20z"/>
<path d="M5450 2467 c0 -2 26 -25 58 -53 31 -27 48 -37 36 -22 -32 41 -94 90
-94 75z"/>
<path d="M5510 2063 c41 -43 82 -87 92 -98 10 -11 18 -15 18 -9 0 14 -159 184
-173 184 -5 0 23 -35 63 -77z"/>
<path d="M5820 2051 c25 -23 50 -41 55 -41 11 0 -20 27 -70 61 -17 11 -10 2
15 -20z"/>
<path d="M5940 1955 c13 -14 26 -25 28 -25 3 0 -5 11 -18 25 -13 14 -26 25
-28 25 -3 0 5 -11 18 -25z"/>
<path d="M5800 1939 c0 -5 7 -9 16 -9 8 0 12 -4 9 -10 -8 -12 5 -13 23 -1 10
6 6 11 -17 19 -19 7 -31 7 -31 1z"/>
<path d="M5624 1915 c9 -35 57 -147 62 -142 4 4 -55 160 -63 167 -3 3 -3 -8 1
-25z"/>
<path d="M2783 1260 c0 -30 2 -43 4 -27 2 15 2 39 0 55 -2 15 -4 2 -4 -28z"/>
<path d="M2195 1270 c-24 -6 -26 -8 -7 -9 19 -1 22 -6 22 -43 0 -24 5 -50 10
-58 7 -11 10 5 10 53 0 37 -1 66 -2 66 -2 -1 -16 -5 -33 -9z"/>
<path d="M2452 1260 c0 -14 2 -19 5 -12 2 6 2 18 0 25 -3 6 -5 1 -5 -13z"/>
<path d="M2328 1245 c2 -15 0 -25 -7 -25 -19 0 -12 -17 9 -23 17 -4 20 0 20
34 0 26 -4 39 -14 39 -9 0 -12 -8 -8 -25z"/>
<path d="M1515 1240 l-20 -9 20 0 c11 0 38 4 60 8 l40 9 -40 0 c-22 0 -49 -3
-60 -8z"/>
<path d="M1925 1233 c-27 -1 -73 -5 -101 -8 l-50 -6 0 -59 c0 -54 2 -60 20
-60 13 0 17 3 9 8 -6 4 -11 28 -11 55 1 38 5 47 20 49 10 0 23 1 30 2 8 1 11
-15 9 -51 -1 -33 2 -53 8 -53 6 0 12 15 12 33 1 17 2 41 3 52 1 11 9 21 19 23
12 3 17 -3 17 -21 0 -14 7 -27 14 -30 11 -5 14 1 13 21 -2 22 2 27 23 28 44 2
50 4 50 14 0 6 -8 9 -17 8 -10 -1 -40 -3 -68 -5z"/>
<path d="M2376 1221 c-4 -7 -5 -15 -2 -18 9 -9 19 4 14 18 -4 11 -6 11 -12 0z"/>
<path d="M1480 1199 c0 -5 5 -7 10 -4 6 3 10 8 10 11 0 2 -4 4 -10 4 -5 0 -10
-5 -10 -11z"/>
<path d="M1520 1184 c0 -8 5 -12 10 -9 6 4 8 11 5 16 -9 14 -15 11 -15 -7z"/>
<path d="M1980 1175 c0 -9 6 -12 15 -9 8 4 15 7 15 9 0 2 -7 5 -15 9 -9 3 -15
0 -15 -9z"/>
<path d="M2325 1171 c-6 -5 -19 -11 -30 -14 -11 -3 -5 -5 14 -4 19 1 36 8 39
15 4 14 -10 16 -23 3z"/>
<path d="M1516 1144 c-8 -20 0 -32 14 -18 5 5 5 15 1 22 -6 11 -10 10 -15 -4z"/>
<path d="M1904 1128 c-2 -4 -1 -8 3 -11 12 -6 93 4 93 12 0 8 -91 8 -96 -1z"/>
<path d="M1510 1091 c0 -6 5 -13 10 -16 6 -3 10 1 10 9 0 9 -4 16 -10 16 -5 0
-10 -4 -10 -9z"/>
<path d="M3156 7049 c16 -18 20 -40 23 -145 3 -134 -8 -223 -41 -322 -11 -34
-18 -65 -15 -68 14 -14 82 70 107 133 15 37 36 73 46 80 19 12 20 10 20 -57 1
-65 7 -90 19 -78 3 2 9 51 15 109 6 57 16 122 22 144 6 22 13 58 15 80 4 48
31 82 49 63 6 -7 64 -104 128 -216 149 -260 177 -303 239 -369 44 -47 160
-126 237 -162 24 -11 24 -11 5 4 -11 9 -54 38 -95 65 -77 50 -172 139 -213
200 -13 19 -55 91 -93 160 -90 166 -160 279 -191 312 l-26 27 -36 -21 c-32
-18 -41 -19 -79 -9 -29 8 -46 20 -54 37 -6 13 -18 24 -27 24 -9 0 -25 7 -35
15 -29 22 -42 18 -20 -6z m181 -111 c-3 -8 -6 -5 -6 6 -1 11 2 17 5 13 3 -3 4
-12 1 -19z"/>
<path d="M3352 6755 c0 -16 2 -22 5 -12 2 9 2 23 0 30 -3 6 -5 -1 -5 -18z"/>
<path d="M4445 6599 c-8 -11 1 -14 98 -30 42 -6 80 -9 84 -5 3 3 -3 6 -15 6
-12 0 -54 9 -92 19 -41 12 -72 16 -75 10z"/>
<path d="M4650 6511 c8 -5 33 -11 55 -15 25 -3 33 -3 20 3 -29 12 -93 22 -75
12z"/>
<path d="M4178 6004 c-14 -14 -8 -59 12 -84 l20 -25 0 23 c0 12 -4 22 -9 22
-6 0 -11 16 -13 36 -2 20 -6 32 -10 28z"/>
<path d="M7370 5849 c270 -29 2203 -94 2055 -69 -27 4 -120 9 -205 9 -254 2
-1310 40 -1685 61 -197 11 -273 11 -165 -1z"/>
<path d="M10015 5750 c33 -4 98 -8 145 -7 l85 0 -75 7 c-41 4 -106 7 -145 7
l-70 0 60 -7z"/>
<path d="M7350 5589 c292 -19 1690 -85 2495 -119 132 -5 276 -12 320 -15 51
-3 73 -1 60 4 -11 5 -204 17 -430 26 -645 25 -1954 86 -2285 105 -91 5 -192 9
-225 8 -34 0 -7 -4 65 -9z"/>
<path d="M9730 3428 c-1 -5 -4 -20 -5 -35 -1 -16 -6 -57 -10 -93 -6 -62 -5
-69 39 -169 25 -57 62 -123 81 -147 41 -50 42 -53 13 -48 -13 2 -17 1 -8 -2
43 -20 101 -130 94 -181 -3 -28 1 -38 28 -61 20 -19 32 -39 33 -59 2 -29 1
-29 -24 -16 -14 7 -39 31 -56 53 -16 21 -38 42 -47 45 -25 9 -120 115 -143
160 -11 22 -28 49 -38 60 -10 11 -30 41 -43 68 -28 54 -53 61 -92 25 l-25 -23
7 23 c20 69 20 69 -3 42 -24 -29 -24 -35 -11 -171 12 -112 42 -195 93 -255 27
-32 173 -121 189 -116 5 1 22 -5 39 -13 16 -9 35 -13 41 -9 6 4 8 3 5 -4 -8
-12 68 -5 96 10 25 13 23 48 -3 41 -11 -3 -20 -9 -20 -14 0 -5 8 -6 18 -3 14
5 14 4 -2 -6 -25 -16 -104 -7 -154 19 -64 32 -137 96 -196 170 -70 87 -77 106
-79 207 -2 86 9 114 44 114 18 0 29 -19 118 -210 17 -36 40 -82 52 -102 20
-36 77 -77 129 -93 14 -4 41 -18 61 -31 20 -13 39 -20 42 -18 13 13 27 -38 21
-76 -6 -34 -10 -40 -25 -35 -11 4 -49 7 -87 9 -47 1 -83 10 -116 26 -41 19
-54 21 -80 12 -17 -6 -58 -13 -91 -17 -69 -8 -172 -33 -136 -34 12 -1 79 8
148 20 114 19 126 20 142 5 10 -9 25 -16 35 -16 9 0 30 -7 46 -15 37 -19 260
-41 270 -25 7 11 44 9 56 -3 4 -4 20 -7 36 -7 29 0 29 0 26 57 -3 52 -6 59
-31 71 -36 17 -50 55 -42 112 5 42 4 44 -10 26 -17 -23 -20 -8 -4 27 11 25 49
54 49 37 0 -5 9 -10 20 -10 19 0 20 6 19 123 -1 93 -4 115 -11 94 -6 -15 -13
-26 -16 -24 -4 1 -23 10 -43 20 -33 15 -37 22 -49 78 -15 69 -57 127 -109 149
-20 8 -31 21 -35 41 -9 45 -70 134 -110 158 -19 12 -52 24 -73 27 -37 5 -37 4
13 -16 27 -11 60 -29 71 -39 30 -28 82 -122 89 -162 7 -34 30 -69 46 -69 5 0
4 9 -2 20 -17 31 11 25 44 -9 18 -18 35 -55 47 -97 21 -76 10 -75 -18 1 -14
39 -27 54 -53 67 -19 9 -43 15 -52 12 -14 -4 -18 1 -18 24 0 29 -39 136 -47
129 -2 -3 3 -24 11 -48 26 -80 28 -117 10 -172 -9 -29 -20 -56 -25 -61 -12
-14 -36 10 -75 78 -20 33 -42 65 -49 71 -19 13 -33 78 -43 195 -5 52 -10 92
-12 88z m137 -445 c-6 -5 -38 40 -61 84 -28 56 -17 48 25 -17 22 -34 38 -64
36 -67z m166 107 c31 -24 66 -122 61 -170 -4 -29 -2 -32 6 -15 8 16 9 14 5
-14 -3 -18 -5 -42 -5 -53 0 -11 -5 -16 -11 -13 -7 5 -9 -5 -7 -26 2 -21 8 -33
16 -31 16 3 15 -13 -5 -51 -21 -42 -28 -98 -11 -92 14 6 36 -24 48 -64 5 -19
2 -31 -11 -44 -17 -18 -18 -18 -26 0 -5 10 -18 47 -28 83 -13 46 -27 72 -48
89 -33 27 -66 93 -67 130 0 24 0 24 21 5 l22 -19 -8 50 c-4 32 -17 63 -37 87
-27 34 -29 41 -19 70 16 49 49 98 65 98 7 0 25 -9 39 -20z m-105 -155 c-3 -3
-9 2 -12 12 -6 14 -5 15 5 6 7 -7 10 -15 7 -18z m230 9 c6 3 15 -1 22 -9 7 -8
16 -12 21 -9 12 7 11 -18 -1 -51 -9 -23 -12 -25 -25 -11 -8 8 -15 27 -16 43
l0 28 -10 -25 c-5 -13 -9 -53 -8 -87 1 -35 -1 -66 -4 -69 -3 -3 -7 41 -9 99
-2 81 0 103 9 95 7 -5 16 -7 21 -4z m-246 -41 c8 -10 18 -27 22 -38 4 -11 3
-15 -1 -10 -5 6 -19 22 -32 38 -14 15 -20 27 -14 27 5 0 17 -8 25 -17z m-94
-175 c22 -20 37 -39 34 -43 -4 -3 1 -3 9 0 9 3 23 -3 35 -16 l19 -22 -25 8
c-57 17 -84 40 -131 112 -27 41 -49 81 -49 87 0 6 15 -12 34 -39 18 -28 52
-67 74 -87z m-154 -82 c25 -30 33 -45 21 -39 -36 20 -76 62 -91 98 -20 48 -18
53 8 19 12 -16 40 -51 62 -78z m384 -75 c12 -58 14 -84 6 -89 -6 -4 -14 -14
-17 -22 -3 -8 -3 3 0 26 4 36 -8 127 -25 174 -4 11 -2 12 7 4 6 -6 19 -48 29
-93z m-266 -18 c20 -24 -7 -12 -42 19 l-35 31 33 -19 c19 -11 38 -25 44 -31z
m375 -79 c-3 -3 -12 -4 -19 -1 -8 3 -5 6 6 6 11 1 17 -2 13 -5z"/>
<path d="M10010 2808 c0 -22 30 -58 48 -58 13 0 12 3 -6 16 -12 8 -22 21 -22
29 0 8 -4 17 -10 20 -5 3 -10 0 -10 -7z"/>
<path d="M9990 2768 c0 -14 9 -36 19 -49 l20 -24 -15 45 c-19 55 -24 61 -24
28z"/>
<path d="M10050 2710 c0 -5 5 -10 10 -10 6 0 10 5 10 10 0 6 -4 10 -10 10 -5
0 -10 -4 -10 -10z"/>
<path d="M9721 3134 c0 -11 3 -14 6 -6 3 7 2 16 -1 19 -3 4 -6 -2 -5 -13z"/>
<path d="M9621 2954 c0 -11 3 -14 6 -6 3 7 2 16 -1 19 -3 4 -6 -2 -5 -13z"/>
<path d="M9722 2940 c0 -14 2 -19 5 -12 2 6 2 18 0 25 -3 6 -5 1 -5 -13z"/>
<path d="M9876 2833 c-4 -9 -2 -21 4 -27 7 -7 10 -7 10 1 0 6 3 18 6 27 3 9 2
16 -4 16 -5 0 -13 -8 -16 -17z"/>
<path d="M9877 2569 c7 -7 15 -10 18 -7 3 3 -2 9 -12 12 -14 6 -15 5 -6 -5z"/>
<path d="M9780 2450 c-14 -4 -52 -6 -85 -4 -55 3 -57 3 -20 -6 60 -13 109 -12
131 5 21 16 13 17 -26 5z"/>
<path d="M9502 2444 c2 -5 10 -21 17 -37 8 -15 11 -30 8 -34 -4 -4 -30 -7 -57
-7 -50 -1 -62 -13 -42 -41 6 -10 61 -35 105 -49 11 -3 21 -15 24 -26 3 -11 19
-25 37 -31 l32 -11 21 -247 c11 -135 20 -247 18 -249 -5 -6 -465 -5 -471 1 -4
4 97 7 224 7 157 0 233 4 238 11 5 8 -50 10 -192 9 -292 -4 -274 -6 -274 30 0
23 -4 28 -16 23 -13 -5 -13 -7 -2 -14 10 -7 11 -12 1 -28 -8 -13 -9 -22 -3
-26 6 -3 10 -46 10 -96 0 -56 4 -89 11 -89 6 0 9 25 7 69 -1 39 0 72 2 75 7 6
470 12 470 6 0 -2 -12 -14 -27 -26 -35 -28 -25 -49 38 -81 77 -40 483 -88 539
-65 20 9 4 11 -75 11 -191 2 -505 65 -505 102 0 5 9 14 20 21 25 16 25 22 3
310 -9 126 -14 231 -10 234 3 4 53 -1 109 -9 133 -21 381 -38 436 -30 83 11
40 22 -90 21 -73 0 -164 3 -203 6 -102 10 -255 37 -260 47 -3 4 -12 6 -20 3
-21 -8 -55 14 -55 36 0 15 -11 22 -45 31 -25 6 -45 15 -45 21 0 5 -10 13 -22
18 -20 7 -20 9 -4 9 10 1 25 -7 32 -16 12 -15 13 -15 8 -2 -8 24 32 31 74 13
40 -16 52 -18 52 -5 0 5 -15 12 -32 15 -26 5 -37 15 -52 47 -11 22 -24 43 -29
46 -5 3 -8 2 -5 -3z"/>
<path d="M9885 2311 c22 -5 112 -11 200 -14 99 -4 145 -3 120 3 -22 4 -112 11
-200 14 -98 3 -145 2 -120 -3z"/>
<path d="M9611 2024 c0 -11 3 -14 6 -6 3 7 2 16 -1 19 -3 4 -6 -2 -5 -13z"/>
<path d="M9621 1954 c0 -11 3 -14 6 -6 3 7 2 16 -1 19 -3 4 -6 -2 -5 -13z"/>
<path d="M1136 1928 c-43 -4 -84 -9 -90 -12 -16 -7 70 -5 134 2 84 10 46 19
-44 10z"/>
<path d="M2530 1886 c0 -9 5 -16 10 -16 6 0 10 4 10 9 0 6 -4 13 -10 16 -5 3
-10 -1 -10 -9z"/>
<path d="M233 1840 c0 -30 2 -43 4 -27 2 15 2 39 0 55 -2 15 -4 2 -4 -28z"/>
<path d="M2374 1815 l-1 -75 38 0 c21 0 40 4 43 9 3 5 -9 8 -26 7 l-33 -1 4
68 c2 51 0 67 -11 67 -10 0 -13 -20 -14 -75z"/>
<path d="M2272 1868 c-15 -15 -16 -108 -2 -108 10 0 11 2 15 36 1 12 5 33 9
47 7 29 -5 42 -22 25z"/>
<path d="M2430 1871 c0 -6 5 -13 10 -16 6 -3 10 1 10 9 0 9 -4 16 -10 16 -5 0
-10 -4 -10 -9z"/>
<path d="M322 1850 c0 -14 2 -19 5 -12 2 6 2 18 0 25 -3 6 -5 1 -5 -13z"/>
<path d="M573 1790 c0 -47 2 -66 4 -42 2 23 2 61 0 85 -2 23 -4 4 -4 -43z"/>
<path d="M2150 1818 c0 -24 5 -50 10 -58 8 -12 10 -9 10 13 0 20 5 27 20 27
15 0 20 -7 21 -27 0 -16 4 -37 9 -48 6 -14 9 5 9 58 1 47 -3 77 -9 77 -6 0
-10 -7 -8 -16 2 -9 -7 -20 -19 -25 -19 -7 -23 -5 -23 11 0 10 8 21 18 23 10 3
6 5 -10 6 -26 1 -28 -1 -28 -41z"/>
<path d="M2620 1815 c0 -25 5 -45 10 -45 6 0 10 20 10 45 0 25 -4 45 -10 45
-5 0 -10 -20 -10 -45z"/>
<path d="M282 1820 c0 -19 2 -27 5 -17 2 9 2 25 0 35 -3 9 -5 1 -5 -18z"/>
<path d="M1412 1820 c1 -34 17 -40 25 -10 3 11 9 20 14 20 5 0 9 5 9 10 0 6
-11 10 -24 10 -21 0 -25 -5 -24 -30z"/>
<path d="M2527 1834 c-15 -53 -17 -74 -7 -74 10 0 14 14 10 39 -1 8 4 18 12
22 10 6 10 11 1 20 -8 8 -12 6 -16 -7z"/>
<path d="M352 1815 c0 -16 2 -22 5 -12 2 9 2 23 0 30 -3 6 -5 -1 -5 -18z"/>
<path d="M2328 1833 c-11 -3 -18 -14 -18 -29 0 -22 2 -23 20 -12 11 7 20 21
20 30 0 10 -1 17 -2 17 -2 -1 -11 -3 -20 -6z"/>
<path d="M2569 1805 c-6 -40 -4 -53 7 -43 3 3 4 23 2 44 l-3 39 -6 -40z"/>
<path d="M8440 1828 c-95 -20 -141 -38 -179 -69 -34 -27 -46 -31 -78 -26 -21
3 -46 8 -57 13 -31 12 -14 -18 21 -39 43 -25 356 -67 498 -67 187 0 494 55
453 81 -9 6 -8 9 7 10 11 0 -5 9 -35 20 -30 11 -69 18 -87 16 -20 -3 -31 0
-30 6 3 17 -117 46 -233 57 -125 12 -219 11 -280 -2z m359 -154 c8 -8 -275 -1
-304 6 -16 5 44 6 135 3 91 -3 167 -7 169 -9z m54 9 c-7 -2 -21 -2 -30 0 -10
3 -4 5 12 5 17 0 24 -2 18 -5z"/>
<path d="M1870 1822 c-8 -4 -15 -13 -16 -19 -2 -28 -4 -33 -13 -33 -5 0 -12
11 -15 25 -9 35 -26 21 -26 -21 0 -33 12 -45 25 -24 3 6 18 10 32 10 20 0 24
4 20 20 -7 29 22 41 79 33 41 -5 45 -8 29 -19 -18 -14 -14 -51 5 -39 6 4 11
-6 11 -22 1 -15 5 -3 9 27 4 30 5 58 3 63 -5 9 -122 8 -143 -1z"/>
<path d="M1328 1813 c7 -3 16 -2 19 1 4 3 -2 6 -13 5 -11 0 -14 -3 -6 -6z"/>
<path d="M1762 1760 c0 -63 0 -64 9 -22 4 24 4 52 -1 65 -6 16 -9 5 -8 -43z"/>
<path d="M2426 1811 c-3 -5 1 -11 9 -15 15 -6 29 7 18 18 -9 9 -21 8 -27 -3z"/>
<path d="M1555 1801 c-11 -5 -23 -7 -27 -4 -5 2 -8 -1 -8 -6 0 -6 5 -11 10
-11 17 0 12 -78 -6 -88 -9 -5 -14 -14 -10 -20 13 -22 56 29 56 65 0 20 -4 32
-10 28 -5 -3 -10 -1 -10 4 0 6 3 11 8 11 4 1 30 7 57 15 l50 14 -45 0 c-25 0
-54 -4 -65 -8z"/>
<path d="M1702 1788 c-6 -6 -12 -24 -12 -38 0 -38 -22 -78 -45 -84 -12 -3 -47
-8 -78 -12 -31 -4 -57 -11 -57 -15 0 -13 76 -11 137 3 44 10 53 16 53 34 0 12
7 24 15 28 16 6 19 47 7 79 -6 14 -10 15 -20 5z"/>
<path d="M1908 1767 c-4 -38 1 -67 11 -67 11 0 13 88 2 94 -5 3 -11 -9 -13
-27z"/>
<path d="M1868 1730 c-7 -24 -3 -38 8 -28 3 4 4 17 2 30 l-3 23 -7 -25z"/>
<path d="M1966 1731 c-4 -7 -5 -15 -2 -18 9 -9 19 4 14 18 -4 11 -6 11 -12 0z"/>
<path d="M2490 1729 c0 -5 5 -7 10 -4 6 3 10 8 10 11 0 2 -4 4 -10 4 -5 0 -10
-5 -10 -11z"/>
<path d="M1795 1700 c-8 -13 15 -13 35 0 12 8 11 10 -7 10 -12 0 -25 -4 -28
-10z"/>
<path d="M9665 1630 c3 -5 8 -10 11 -10 2 0 4 5 4 10 0 6 -5 10 -11 10 -5 0
-7 -4 -4 -10z"/>
<path d="M9360 1540 c8 -5 20 -10 25 -10 6 0 3 5 -5 10 -8 5 -19 10 -25 10 -5
0 -3 -5 5 -10z"/>
<path d="M9348 1455 c43 -65 55 -196 27 -291 -20 -69 -86 -158 -141 -190 -51
-30 -53 -42 -3 -21 57 24 99 67 136 141 30 58 37 85 41 147 5 90 -16 175 -54
216 l-26 28 20 -30z"/>
<path d="M9196 1388 c-12 -94 -12 -108 -6 -108 9 0 24 140 16 147 -2 3 -7 -15
-10 -39z"/>
<path d="M9493 1300 c-2 -69 -45 -217 -80 -277 -14 -24 -45 -61 -70 -83 -25
-22 -41 -40 -34 -40 19 0 91 71 116 114 50 87 105 323 79 339 -5 3 -10 -21
-11 -53z"/>
<path d="M233 1225 c0 -38 2 -53 4 -32 2 20 2 52 0 70 -2 17 -4 1 -4 -38z"/>
<path d="M281 1224 c0 -11 3 -14 6 -6 3 7 2 16 -1 19 -3 4 -6 -2 -5 -13z"/>
<path d="M3098 763 c7 -3 16 -2 19 1 4 3 -2 6 -13 5 -11 0 -14 -3 -6 -6z"/>
<path d="M8080 742 c0 -78 146 -130 431 -153 219 -17 537 5 633 45 38 16 76
60 76 89 0 28 -17 10 -22 -22 -9 -68 -158 -95 -518 -96 -239 0 -276 2 -374 23
-152 32 -226 74 -213 122 3 11 1 20 -4 20 -5 0 -9 -13 -9 -28z"/>
<path d="M283 700 c0 -30 2 -43 4 -27 2 15 2 39 0 55 -2 15 -4 2 -4 -28z"/>
<path d="M323 705 c0 -27 2 -38 4 -22 2 15 2 37 0 50 -2 12 -4 0 -4 -28z"/>
<path d="M2942 725 c0 -16 2 -22 5 -12 2 9 2 23 0 30 -3 6 -5 -1 -5 -18z"/>
<path d="M2781 724 c0 -11 3 -14 6 -6 3 7 2 16 -1 19 -3 4 -6 -2 -5 -13z"/>
<path d="M2835 730 c3 -5 8 -10 11 -10 2 0 4 5 4 10 0 6 -5 10 -11 10 -5 0 -7
-4 -4 -10z"/>
<path d="M3098 698 c-5 -47 -1 -68 13 -68 5 0 9 25 9 55 0 65 -16 74 -22 13z"/>
<path d="M363 695 c0 -22 2 -30 4 -17 2 12 2 30 0 40 -3 9 -5 -1 -4 -23z"/>
<path d="M2867 709 c4 -13 9 -17 15 -11 11 11 3 32 -12 32 -4 0 -6 -9 -3 -21z"/>
<path d="M410 685 c0 -19 2 -35 4 -35 2 0 6 16 8 35 2 19 0 35 -4 35 -4 0 -8
-16 -8 -35z"/>
<path d="M574 635 c0 -49 1 -71 3 -48 2 23 2 64 0 90 -2 26 -3 8 -3 -42z"/>
<path d="M251 703 c-1 -6 -4 -20 -7 -30 -5 -17 -5 -17 6 0 6 10 9 23 6 30 -3
9 -5 9 -5 0z"/>
<path d="M463 670 c0 -25 2 -35 4 -22 2 12 2 32 0 45 -2 12 -4 2 -4 -23z"/>
<path d="M2520 671 c0 -22 -24 -29 -35 -11 -4 6 -12 7 -18 3 -7 -4 -32 -8 -56
-8 -44 0 -45 0 -44 -35 0 -31 3 -35 24 -33 51 6 68 14 71 35 4 30 28 36 28 6
0 -23 20 -64 20 -42 0 7 14 14 30 16 26 4 31 1 36 -21 11 -49 14 -46 9 9 -3
30 -6 63 -6 73 0 9 -6 17 -14 17 -7 0 -20 3 -29 6 -12 4 -16 0 -16 -15z m35
-40 c0 -8 -4 -16 -10 -18 -16 -5 -38 14 -30 26 9 16 40 9 40 -8z m-110 -11 c0
-18 -43 -26 -57 -12 -16 16 2 33 30 30 16 -2 27 -9 27 -18z"/>
<path d="M2923 679 c-29 -10 -31 -33 -3 -24 17 5 20 2 20 -24 0 -17 5 -31 10
-31 12 0 14 77 3 83 -5 3 -18 1 -30 -4z"/>
<path d="M2817 651 c-3 -14 0 -21 9 -21 16 0 18 9 5 28 -6 10 -10 9 -14 -7z"/>
<path d="M2243 578 c1 -38 4 -68 8 -68 19 0 39 33 33 54 -7 23 -7 24 -5 44 2
27 21 10 21 -20 0 -39 19 -76 21 -43 1 11 1 32 0 48 -1 15 3 27 8 27 6 0 11 6
11 13 0 8 -16 12 -49 12 l-49 0 1 -67z"/>
<path d="M2870 638 c0 -22 17 -41 29 -34 6 4 11 14 11 22 0 8 -4 12 -10 9 -5
-3 -10 -1 -10 4 0 6 -4 11 -10 11 -5 0 -10 -6 -10 -12z"/>
<path d="M2059 633 c-1 -5 -3 -23 -5 -41 -4 -34 -24 -62 -43 -62 -6 0 -11 -11
-11 -24 0 -23 2 -24 31 -16 37 11 49 20 26 20 -9 0 -17 5 -17 11 0 6 7 9 15 5
12 -4 15 4 15 38 0 25 3 51 6 60 3 9 1 16 -5 16 -6 0 -12 -3 -12 -7z"/>
<path d="M1810 621 c0 -6 5 -13 10 -16 6 -3 10 1 10 9 0 9 -4 16 -10 16 -5 0
-10 -4 -10 -9z"/>
<path d="M1859 621 c8 -5 20 -7 27 -4 6 2 15 0 18 -6 7 -12 36 -4 36 10 0 5
-21 9 -47 9 -32 0 -43 -3 -34 -9z"/>
<path d="M1963 618 c-4 -7 -6 -23 -5 -35 2 -11 -1 -23 -5 -26 -12 -7 -4 -77 8
-77 5 0 9 26 9 58 0 61 5 67 60 85 8 3 -2 6 -22 6 -20 1 -40 -5 -45 -11z"/>
<path d="M1555 609 c-3 -3 4 -23 15 -43 l19 -38 3 33 c2 26 9 35 28 39 21 6
18 7 -18 11 -24 3 -45 2 -47 -2z"/>
<path d="M1776 604 c-10 -26 -7 -164 4 -164 6 0 10 31 10 74 0 41 3 81 6 90 3
9 2 16 -4 16 -5 0 -13 -7 -16 -16z"/>
<path d="M2775 611 c-3 -5 -1 -12 5 -16 5 -3 10 1 10 9 0 18 -6 21 -15 7z"/>
<path d="M1500 599 c0 -5 5 -7 10 -4 6 3 10 8 10 11 0 2 -4 4 -10 4 -5 0 -10
-5 -10 -11z"/>
<path d="M1728 534 c-2 -42 0 -78 5 -81 4 -2 7 32 7 76 0 45 -2 81 -4 81 -3 0
-6 -34 -8 -76z"/>
<path d="M1820 525 c0 -35 4 -54 10 -50 6 3 10 26 10 50 0 24 -4 47 -10 50 -6
4 -10 -15 -10 -50z"/>
<path d="M2496 548 c7 -11 54 -10 54 1 0 5 -13 9 -30 9 -16 -1 -27 -5 -24 -10z"/>
<path d="M1890 529 c0 -11 5 -17 10 -14 6 3 10 13 10 21 0 8 -4 14 -10 14 -5
0 -10 -9 -10 -21z"/>
<path d="M2360 538 c0 -10 67 -9 100 2 18 6 8 8 -37 8 -35 -1 -63 -5 -63 -10z"/>
<path d="M1591 510 c0 -8 4 -24 9 -35 5 -13 9 -14 9 -5 0 8 -4 24 -9 35 -5 13
-9 14 -9 5z"/>
<path d="M1855 489 c-10 -15 -4 -17 32 -12 18 3 30 9 27 14 -7 13 -51 11 -59
-2z"/>
<path d="M1680 460 c0 -5 5 -10 10 -10 6 0 10 5 10 10 0 6 -4 10 -10 10 -5 0
-10 -4 -10 -10z"/>
<path d="M9208 283 c7 -3 16 -2 19 1 4 3 -2 6 -13 5 -11 0 -14 -3 -6 -6z"/>
<path d="M9098 253 c7 -3 16 -2 19 1 4 3 -2 6 -13 5 -11 0 -14 -3 -6 -6z"/>
<path d="M8878 193 c7 -3 16 -2 19 1 4 3 -2 6 -13 5 -11 0 -14 -3 -6 -6z"/>
<path d="M9935 91 c-164 -46 -293 -87 -286 -89 7 -2 87 17 179 43 431 122 423
119 411 128 -2 2 -139 -35 -304 -82z"/>
<path d="M8628 123 c7 -3 16 -2 19 1 4 3 -2 6 -13 5 -11 0 -14 -3 -6 -6z"/>
<path d="M8368 53 c7 -3 16 -2 19 1 4 3 -2 6 -13 5 -11 0 -14 -3 -6 -6z"/>
</g>
</svg>
